<?xml version="1.0" encoding="utf-8"?>
<!-- Generator: Adobe Illustrator 22.1.0, SVG Export Plug-In . SVG Version: 6.00 Build 0)  -->
<svg version="1.1" id="Layer_1" xmlns="http://www.w3.org/2000/svg" xmlns:xlink="http://www.w3.org/1999/xlink" x="0px" y="0px"
	 viewBox="0 0 1366 768" style="enable-background:new 0 0 1366 768;" xml:space="preserve">
<style type="text/css">
	.st0{fill:#FFFFFF;}
	.st1{fill:url(#SVGID_1_);}
	.st2{fill:url(#SVGID_2_);}
	.st3{fill:url(#SVGID_3_);}
	.st4{fill:url(#SVGID_4_);}
	.st5{fill:url(#SVGID_5_);}
</style>
<path class="st0" d="M397.8-130.4c0,0-40.5,340.5,67.5,495c0,0,75,25.5,156-112.5s7.5-319.5,3-325.5c-4.5-6,397.5,255,301.5,612
	c0,0-87,259.5-396,265.5c-309,6-356.8-355-346.5-439.5C193.7,280,198.4,169.6,397.8-130.4z"/>
<linearGradient id="SVGID_1_" gradientUnits="userSpaceOnUse" x1="182.101" y1="336.877" x2="940.6366" y2="336.877">
	<stop  offset="0" style="stop-color:#7505FF"/>
	<stop  offset="1" style="stop-color:#A041FA"/>
</linearGradient>
<path class="st1" d="M940.2,447.6c-1.4,29.5-6,59.9-14.3,91c0,0-65.3,194.8-283.7,250.8c-33.7,8.6-71,13.9-112.2,14.7
	c-309,6-356.8-355-346.5-439.5c10.3-84.6,15-195,214.5-495c0,0,0,0,0,0c-0.5,4.5-39.8,341.5,67.5,494.9c0,0,75,25.5,156-112.5
	c81-138,7.5-319.5,3-325.5C620.2-78.9,954.9,138.1,940.2,447.6z"/>
<radialGradient id="SVGID_2_" cx="528.3738" cy="175.2217" r="81.3219" fx="547.891" fy="254.1668" gradientUnits="userSpaceOnUse">
	<stop  offset="0" style="stop-color:#7008F5"/>
	<stop  offset="1" style="stop-color:#9532FF"/>
</radialGradient>
<path class="st2" d="M591.7,173c-49.2,51.8-78,28-78,28s69-129,70-201c0,0,0,0,0,0C584.7,1.8,648.2,113.5,591.7,173z"/>
<path class="st0" d="M357,511.9"/>
<radialGradient id="SVGID_3_" cx="304.2151" cy="687.8536" r="380.376" gradientUnits="userSpaceOnUse">
	<stop  offset="0" style="stop-color:#7505FF"/>
	<stop  offset="1" style="stop-color:#A32BFF"/>
</radialGradient>
<path class="st3" d="M940.2,447.6c-1.4,29.5-6,59.9-14.3,91c0,0-65.3,194.8-283.7,250.8c-33.7,8.6-71,13.9-112.2,14.7
	c-309,6-356.8-355-346.5-439.5c10.3-84.6,15-195,214.5-495c0,0,0,0,0,0c-0.5,4.5-39.8,341.5,67.5,494.9c0,0,214.3,305.4,474.3,83.4
	C939.8,447.9,940,447.7,940.2,447.6z"/>
<radialGradient id="SVGID_4_" cx="253.073" cy="234.8668" r="368.2614" gradientUnits="userSpaceOnUse">
	<stop  offset="0" style="stop-color:#9E44FB"/>
	<stop  offset="0.4838" style="stop-color:#891CFF"/>
	<stop  offset="1" style="stop-color:#9532FF"/>
</radialGradient>
<path class="st4" d="M642.1,789.3c-33.7,8.6-71,13.9-112.2,14.7c-309,6-356.8-355-346.5-439.5c10.3-84.6,15-195,214.5-495
	c0,0,0,0,0,0C395.3-123.2,125,645.2,642.1,789.3z"/>
<radialGradient id="SVGID_5_" cx="618.3767" cy="67.1042" r="100.6739" gradientUnits="userSpaceOnUse">
	<stop  offset="0" style="stop-color:#7008F5"/>
	<stop  offset="1" style="stop-color:#9532FF"/>
</radialGradient>
<path class="st5" d="M591.7,173c-49.2,51.8-78,28-78,28c112-72.6,70.6-199.3,70-201C584.7,1.8,648.2,113.5,591.7,173z"/>
</svg>
